<?xml version="1.0" encoding="UTF-8"?>
<mxfile host="app.diagrams.net">
  <diagram name="Architecture">
    <mxGraphModel dx="828" dy="556" grid="1" gridSize="10" guides="1" tooltips="1" connect="1" arrows="1" fold="1" page="1" pageScale="1" pageWidth="827" pageHeight="1169" math="0" shadow="0">
      <root>
        <mxCell id="0"/>
        <mxCell id="1" parent="0"/>
        <!-- Nodes -->
        <mxCell id="dev" value="Device Simulator" style="rounded=1;whiteSpace=wrap;html=1;strokeColor=#000000;fillColor=#FFFFFF;" vertex="1" parent="1">
          <mxGeometry x="40" y="120" width="160" height="60" as="geometry"/>
        </mxCell>

        <mxCell id="mqtt" value="MQTT Broker" style="rounded=1;whiteSpace=wrap;html=1;strokeColor=#000000;fillColor=#FFFFFF;" vertex="1" parent="1">
          <mxGeometry x="240" y="120" width="140" height="60" as="geometry"/>
        </mxCell>

        <mxCell id="backend" value="Backend Service" style="rounded=1;whiteSpace=wrap;html=1;strokeColor=#000000;fillColor=#FFFFFF;" vertex="1" parent="1">
          <mxGeometry x="420" y="120" width="160" height="60" as="geometry"/>
        </mxCell>

        <mxCell id="influx" value="InfluxDB" style="ellipse;whiteSpace=wrap;html=1;strokeColor=#000000;fillColor=#FFFFFF;" vertex="1" parent="1">
          <mxGeometry x="620" y="120" width="120" height="60" as="geometry"/>
        </mxCell>

        <mxCell id="grafana" value="Grafana" style="rounded=1;whiteSpace=wrap;html=1;strokeColor=#000000;fillColor=#FFFFFF;" vertex="1" parent="1">
          <mxGeometry x="620" y="220" width="120" height="60" as="geometry"/>
        </mxCell>

        <mxCell id="angular" value="Angular App" style="rounded=1;whiteSpace=wrap;html=1;strokeColor=#000000;fillColor=#FFFFFF;" vertex="1" parent="1">
          <mxGeometry x="620" y="320" width="120" height="60" as="geometry"/>
        </mxCell>

        <!-- Edges -->
        <mxCell id="e1" style="edgeStyle=orthogonalEdgeStyle;rounded=0;orthogonalLoop=1;jettySize=auto;html=1;endArrow=classic;" edge="1" parent="1" source="dev" target="mqtt">
          <mxGeometry relative="1" as="geometry"/>
        </mxCell>

        <mxCell id="e2" style="edgeStyle=orthogonalEdgeStyle;rounded=0;orthogonalLoop=1;jettySize=auto;html=1;endArrow=classic;" edge="1" parent="1" source="mqtt" target="backend">
          <mxGeometry relative="1" as="geometry"/>
        </mxCell>

        <mxCell id="e3" style="edgeStyle=orthogonalEdgeStyle;rounded=0;orthogonalLoop=1;jettySize=auto;html=1;endArrow=classic;" edge="1" parent="1" source="backend" target="influx">
          <mxGeometry relative="1" as="geometry"/>
        </mxCell>

        <mxCell id="e4" style="edgeStyle=orthogonalEdgeStyle;rounded=0;orthogonalLoop=1;jettySize=auto;html=1;endArrow=classic;" edge="1" parent="1" source="influx" target="grafana">
          <mxGeometry relative="1" as="geometry"/>
        </mxCell>

        <mxCell id="e5" style="edgeStyle=orthogonalEdgeStyle;rounded=0;orthogonalLoop=1;jettySize=auto;html=1;endArrow=classic;" edge="1" parent="1" source="grafana" target="angular">
          <mxGeometry relative="1" as="geometry"/>
        </mxCell>

      </root>
    </mxGraphModel>
  </diagram>
</mxfile>
